<?xml version="1.0" encoding="UTF-8"?>
<svg id="_Шар_1" data-name="Шар 1" xmlns="http://www.w3.org/2000/svg" xmlns:xlink="http://www.w3.org/1999/xlink" viewBox="0 0 669.67 486.75">
  <defs>
    <style>
      .cls-1 {
        fill: #fff;
      }

      .cls-2 {
        fill: url(#_Градієнт_без_назви_4);
      }
    </style>
    <linearGradient id="_Градієнт_без_назви_4" data-name="Градієнт без назви 4" x1="166.83" y1="77.03" x2="583.95" y2="380.31" gradientUnits="userSpaceOnUse">
      <stop offset="0" stop-color="#1fefff"/>
      <stop offset=".91" stop-color="#350060"/>
    </linearGradient>
  </defs>
  <path class="cls-2" d="M592.42,178.49c-2.03-31.67-23.65-60.81-55.07-68.35,3.47-31.72-19.33-60.3-48.59-67.23-12.68-3.01-26.82.27-26.82.27,0,0-4.64-14.28-11.83-21.83-30.29-31.81-91.1-28.37-115.22,12.3-28.35-47.95-107.88-42.41-128.2,9.93-39.54-10.34-80.01,25.82-74.13,66.27-48.22,11.51-69.6,71.08-45.85,112.88,5.54,9.97,13.15,18.16,22.13,25.12l14.57,33.1c4.14,0,38.52.15,41.57.08.92.09,2.55.47,3.11,1.14,7.25,7.9,14.71,15.64,22.28,23.21,6.83.68,13.72.28,21.14.42,10.56,11.02,21.9,22.57,32.27,33.88,16.16.41,37.03.04,53.25.13l18.64-19.38-.14-23.05-25.05,26.37h-39.81c-4.13-4.31-20.14-22.29-20.14-22.29,0,0,13.1-10.49,20.23-14.91,23.61,17.03,52.66-14.18,34.9-36.42-16.53-23.28-54.44-3.32-44.87,23.65-2.17,2.37-16.68,12.5-19.47,14.71-1.53,2.53-21.62.72-24.1,1.16-8.08-7.45-15.95-16.42-23.4-24.56l-23.25-.16,17.76-18.57,18.05.05,16.04,18.75.11,13.23,12.8.12.1-16.96c-1.58-3.46-5.72-7.49-8.17-10.84l18.05-19.1c45.52,11.29,112.99-2.33,117.46-57.14l.08-3.23s.42-58.54.02-78.05c-.88-42.86,11.6-74.81,50.48-76.35,21.42-1.51,41.16,3.05,51.45,27.25,1.56,3.66,2.31,8.08,3.71,10.47,2.32,3.98,5.51,5.29,8.5,5.33,4.06.06,10.71-2.23,16.82-2.89,5.62-.61,12.56-.49,22.02,4.28,11.91,6.01,20.47,16.82,24.12,29.68,1.77,6.22,1.99,15.93,1.99,15.93,0,0-1.62-.14-2.5-.28-42.19-4.99-88.01,21-89.93,66.56-.45,12.03,16.91,11.65,16.35-.42,1.31-35.69,38.21-52.76,69.98-50.64l4.69.26c49.67,1.5,75.16,64,40.49,103.95-4.02,4.46-8.75,7.75-13.01,11.61-3.31,6.81-8.68,20.43-12.23,27.21-.57.4-39.85-.66-40.05.52-5.96,7.3-16.37,17.11-23.04,23.99-20.89.52-58.6.02-79.7.09-8.09,9.11-20.77,22.33-29.14,31.24-1.18,32.63-.27,94.28-.08,127.92,0,0,15.71-14.14,15.71-14.45l.06-106.68,19.97-21.82c.5-.02,78.4-.17,78.95-.18,9.16-7.39,15.95-17.28,24.97-24.81l42.87-.11,14.43-32.81c21.6-15.97,33.98-42.63,31.68-69.53ZM261.27,256.9c15.62-6.2,18.92,20.3,2.26,18.13-8.96-1.39-10.61-14.58-2.26-18.13ZM327.1,162.85c-.02-.13-.1,3.2-.09,3.45.56,13.55-4.22,24.2-14.67,33.5-5.13-4.6-11.82-10.98-16.4-15.98l-.12-66.96c0-1.38-.52-3-1.34-4.01l-21.45-26.47c18.37-31.83-30.05-56.81-45.77-24.31-10.03,20.44,12.62,43.84,33.2,34.48l19.19,24.03c.61,2.59-1.44,71.02,1.69,71.17,4.68,5.93,12.31,11.71,17.24,17.53-37.6,18.19-90.74,11.99-116.73-23,11.29-17.98-3.81-42.68-25.08-39.55-37.81,6.38-23.95,62.08,12.3,49.9,10.9,14.29,25.26,24.68,42.33,30.93l-12.85,13.43-6.68-7.54-22.44-.1-9.62-21.47h-22.96c-5.77-6.15-13.29-16.36-16.59-25.72l-12.42.02c5.39,18.34,16.44,31.79,22.87,38.71l20.67-.02,6.27,13.94-23.99,24.9-12.21-26.62c-31.45-19.74-37.8-67.52-12.69-94.9,33.21-35.61,113.53-22.95,115.34,32.2.36,10.18,16.12,10.13,16.12-.08-.16-46.67-49.14-73.75-91.71-67.67-3.63-31.74,30.3-56.98,59.85-45.86,5.1,1.73,9.79-1.49,11.34-6.23,10.57-35.12,55.31-48.1,85.21-28.88,12.89,8.11,21.75,21.9,21.82,37.62-.06,23.32.47,76.73.37,99.56ZM260.42,72.8c.18,12.37-19.26,12.37-19.07,0-.18-12.37,19.26-12.37,19.07,0ZM169.38,172.37c.18,12.36-19.24,12.36-19.06,0-.18-12.36,19.24-12.36,19.06,0ZM402.18,237.14c37.33,2.58,75.39-8.38,97.88-40.28,36.91,9.11,51.2-40.22,14.97-50.23-22.87-4.19-37.97,21.04-26.63,40.04-24.26,31.89-54.37,35.93-92.07,34.39-12.28,11.03-40.79,42.08-53.12,51.8.63-5.73-1.73-32.39,1.73-37.02,11.66-11.53,32.61-32.5,42.75-43.09,4.78-4.99,1.99-25.86,2.73-29.8,0,0,.06-42.96.06-42.96,4.92-6.31,13.96-17.39,19.16-23.82,26.56,11.38,48.94-25.84,26.02-43.63-23.11-18.2-53.09,8.55-38.64,33.85l-16.5,20.12c-2,2.94-5.49,5.61-5.66,9.07-2.65,3.08,2.2,64.6-3.68,71.41-6.07,7.04-13.57,13.38-19.91,20.21-9.11,10.2-23.39,18.73-23.88,33.97-.26,35.12-.23,178.04-.17,210.59,0,13.69-2.59,10.9,7.96,21.8l7.78-8.99c.25-51.66-.47-167.19.59-168.38,12.94-14.45,56.77-58.02,58.63-59.04ZM500.84,169.21c7.66-16.24,28.39.93,13.9,11.61-7.96,3.31-16.09-3.26-13.9-11.61ZM409.75,70.03c5.87-15.95,27.71-1.51,15.24,10.2-6.93,5.08-17.81-1.13-15.24-10.2ZM279.4,300.49l23.93-24.79c-.35-8.83.07-29.21-.13-38.34,4.58-1.83,8.31-3.79,12.68-6.29.05,13.69.02,35.92.03,49.75-2.78,3.21-32.28,32.46-32.28,32.46,0,0-18.95-.13-25.45-.14-2.89-1.69-7.27-7.27-9.88-9.6l4.26-3.28c2.32.06,26.83.24,26.83.24Z"/>
  <path class="cls-1" d="M669.28,302.54L606.7,9.79l-92.17,28.79c5.84,3.72,10.68,7.27,15.43,12.14l64.81-20.21,57.29,269.24s-84.59,28.68-144.06,57.24c-85.23,40.94-166.73,105.36-173.16,110.49-6.43-5.13-87.93-69.55-173.16-110.49-59.47-28.56-144.06-57.24-144.06-57.24L74.9,30.5l64.81,20.21c4.75-4.87,9.6-8.42,15.43-12.14L62.97,9.79.39,302.54c-.53,2.51-.82,6.57,1.13,7.95,1.35.96,96.26,31.01,156.3,61.82,41.06,21.07,144,86.67,169.08,111.11,1.18,1.15,4.56,3.32,7.94,3.32s6.76-2.17,7.94-3.32c25.08-24.44,128.02-90.04,169.08-111.11,60.03-30.81,154.95-60.86,156.3-61.82,1.95-1.39,1.66-5.44,1.13-7.95Z"/>
  <circle class="cls-1" cx="510.12" cy="172.37" r="10.48"/>
  <circle class="cls-1" cx="419.07" cy="72.8" r="10.48"/>
  <circle class="cls-1" cx="250.88" cy="72.51" r="10.48"/>
  <circle class="cls-1" cx="159.86" cy="172.37" r="10.48"/>
  <circle class="cls-1" cx="265.21" cy="265.56" r="10.48"/>
</svg>